<svg width="847" height="714" viewBox="0 0 847 714" fill="none" xmlns="http://www.w3.org/2000/svg">
<rect width="847" height="714" fill="#E5E5E5"/>
<g id="undraw_social_thinking_7ule 1" clip-path="url(#clip0)">
<path id="Vector" d="M93.4835 679.876C93.4835 702.345 80.1271 710.19 63.6496 710.19C63.2679 710.19 62.8868 710.186 62.5063 710.177C61.7429 710.161 60.9867 710.124 60.2396 710.073C45.3691 709.021 33.8158 700.772 33.8158 679.876C33.8158 658.251 61.4502 630.964 63.526 628.944L63.5297 628.941C63.6097 628.862 63.6497 628.824 63.6497 628.824C63.6497 628.824 93.4835 657.407 93.4835 679.876Z" fill="#197828"/>
<path id="Vector_2" d="M62.5627 706.753L73.4743 691.506L62.5354 708.427L62.5063 710.177C61.7429 710.161 60.9867 710.124 60.2396 710.073L61.4157 687.594L61.4066 687.419L61.4266 687.387L61.5375 685.264L50.5713 668.301L61.572 683.671L61.5975 684.122L62.4863 667.138L53.0979 649.61L62.6008 664.157L63.526 628.944L63.5297 628.824V628.94L63.3752 656.708L72.7218 645.7L63.337 659.1L63.0898 674.307L71.8166 659.712L63.0534 676.544L62.9153 684.998L75.5846 664.685L62.868 687.948L62.5627 706.753Z" fill="#3F3D56"/>
<path id="Vector_3" d="M733.091 394.388C733.091 570.567 653.099 709.552 554.591 713.388C426.128 718.392 258.234 590.302 376.091 394.388C466.909 243.421 456.008 75.3882 554.591 75.3882C653.174 75.3882 733.091 218.209 733.091 394.388Z" fill="#BAF7E8"/>
<path id="Vector_4" d="M629.461 488.049H374.947V709.074H629.461V488.049Z" fill="#A49A99"/>
<path id="Vector_5" d="M0 709.074H846.02" stroke="#3F3D56" stroke-width="2" stroke-miterlimit="10"/>
<path id="pin" d="M558.717 7.62939e-06C553.122 0.000491595 547.698 1.92632 543.355 5.45403C539.012 8.98174 536.016 13.8964 534.869 19.3727C533.722 24.8489 534.494 30.553 537.056 35.527C539.618 40.501 543.814 44.4418 548.938 46.6876C548.836 44.8134 548.978 42.9338 549.362 41.0964C549.83 39.1167 552.495 27.8146 552.495 27.8146C551.963 26.6014 551.696 25.2886 551.712 23.9639C551.712 20.3524 553.801 17.6547 556.411 17.6547C558.63 17.6547 559.696 19.319 559.696 21.3097C559.696 23.5397 558.271 26.8682 557.542 29.9575C557.397 30.5298 557.389 31.1283 557.517 31.7045C557.646 32.2808 557.908 32.8188 558.283 33.275C558.658 33.7313 559.134 34.0931 559.675 34.3312C560.215 34.5693 560.804 34.6771 561.393 34.6459C566.005 34.6459 569.117 28.7175 569.117 21.6904C569.117 16.3494 565.516 12.3572 558.978 12.3572C557.414 12.2957 555.853 12.5531 554.391 13.1137C552.929 13.6744 551.597 14.5264 550.474 15.6182C549.352 16.71 548.464 18.0186 547.863 19.4646C547.262 20.9105 546.962 22.4635 546.98 24.0291C546.908 25.7653 547.481 27.4667 548.59 28.8045C548.785 28.9651 548.923 29.1833 548.986 29.4276C549.048 29.672 549.032 29.9299 548.938 30.1642C548.819 30.6102 548.557 31.6871 548.438 32.1222C548.417 32.2538 548.365 32.3785 548.286 32.486C548.208 32.5934 548.104 32.6806 547.985 32.7401C547.866 32.7997 547.735 32.83 547.601 32.8285C547.468 32.8269 547.337 32.7937 547.219 32.7314C543.815 31.339 542.227 27.6188 542.227 23.42C542.227 16.5017 548.068 8.20187 559.642 8.20187C568.942 8.20187 575.067 14.9353 575.067 22.1581C575.067 31.7197 569.747 38.8556 561.915 38.8556C559.283 38.8556 556.814 37.4306 555.965 35.8207C555.965 35.8207 554.551 41.4337 554.247 42.5214C553.684 44.3697 552.86 46.128 551.799 47.7428C555.15 48.7326 558.675 48.9902 562.135 48.498C565.595 48.0057 568.908 46.7753 571.85 44.89C574.793 43.0047 577.295 40.5087 579.188 37.5713C581.081 34.6339 582.32 31.3238 582.821 27.8654C583.322 24.4071 583.074 20.8814 582.092 17.5275C581.111 14.1736 579.42 11.07 577.134 8.42706C574.848 5.78415 572.02 3.66379 568.843 2.20979C565.665 0.755783 562.212 0.00215321 558.717 0L558.717 7.62939e-06Z" fill="#E60023"/>
<path id="Twitter" d="M799.277 176.223C797.354 177.073 795.316 177.634 793.228 177.887C795.429 176.571 797.077 174.498 797.862 172.057C795.796 173.287 793.533 174.152 791.173 174.613C789.729 173.069 787.855 171.995 785.793 171.531C783.731 171.066 781.577 171.234 779.611 172.011C777.645 172.788 775.959 174.138 774.771 175.887C773.584 177.635 772.95 179.701 772.952 181.814C772.948 182.623 773.04 183.43 773.224 184.218C769.034 184.011 764.935 182.922 761.193 181.023C757.452 179.125 754.153 176.459 751.512 173.199C750.165 175.521 749.753 178.27 750.362 180.885C750.97 183.501 752.552 185.786 754.786 187.275C753.107 187.233 751.464 186.782 750 185.959V186.089C750 188.523 750.841 190.881 752.382 192.765C753.922 194.648 756.067 195.941 758.452 196.423C757.548 196.668 756.615 196.793 755.678 196.793C755.013 196.794 754.35 196.729 753.699 196.597C754.371 198.692 755.682 200.523 757.447 201.836C759.212 203.149 761.344 203.877 763.543 203.918C759.812 206.85 755.202 208.441 750.457 208.432C749.617 208.431 748.778 208.38 747.944 208.28C752.74 211.401 758.343 213.057 764.065 213.044C783.46 213.044 794.055 196.978 794.055 183.043C794.055 182.587 794.044 182.13 794.023 181.684C796.084 180.19 797.863 178.341 799.277 176.223V176.223Z" fill="#1DA1F2"/>
<path id="facebook" d="M393.922 31.0165H356.764C356.152 31.0168 355.566 31.2599 355.133 31.6923C354.701 32.1247 354.458 32.7111 354.458 33.3226V70.4812C354.458 71.0927 354.701 71.6791 355.133 72.1115C355.566 72.544 356.152 72.787 356.764 72.7873H375.343V56.253H370.35V50.1615H375.343V45.658C375.343 40.2626 379.085 37.3256 383.904 37.3256C386.21 37.3256 388.69 37.4996 389.267 37.5758V43.2105H385.427C382.805 43.2105 382.305 44.4506 382.305 46.2781V50.1615H388.549L387.733 56.253H382.305V72.7873H393.923C394.534 72.787 395.12 72.544 395.553 72.1115C395.985 71.6791 396.228 71.0927 396.229 70.4812V33.3226C396.228 32.711 395.985 32.1247 395.553 31.6922C395.12 31.2598 394.534 31.0168 393.922 31.0165Z" fill="#4267B2"/>
<g id="instagram">
<path id="Vector_6" d="M398.608 185.692C400.914 185.699 403.123 186.618 404.754 188.249C406.384 189.879 407.303 192.089 407.31 194.395V211.799C407.303 214.105 406.384 216.315 404.754 217.945C403.123 219.576 400.914 220.495 398.608 220.501H381.203C378.897 220.495 376.688 219.576 375.057 217.945C373.427 216.315 372.508 214.105 372.501 211.799V194.395C372.508 192.089 373.427 189.879 375.057 188.249C376.688 186.618 378.897 185.699 381.203 185.692H398.608ZM398.608 182.211H381.203C377.975 182.221 374.882 183.508 372.599 185.79C370.316 188.073 369.03 191.166 369.02 194.395V211.799C369.03 215.027 370.316 218.121 372.599 220.403C374.882 222.686 377.975 223.973 381.203 223.982H398.608C401.836 223.973 404.929 222.686 407.212 220.403C409.495 218.121 410.782 215.027 410.791 211.799V194.395C410.782 191.166 409.495 188.073 407.212 185.79C404.929 183.508 401.836 182.221 398.608 182.211V182.211Z" fill="url(#paint0_linear)"/>
<path id="Vector_7" d="M401.218 194.395C400.702 194.395 400.197 194.242 399.768 193.955C399.339 193.668 399.004 193.26 398.807 192.783C398.609 192.306 398.557 191.781 398.658 191.275C398.759 190.768 399.007 190.303 399.372 189.938C399.738 189.573 400.203 189.324 400.709 189.223C401.216 189.123 401.741 189.174 402.218 189.372C402.695 189.57 403.102 189.904 403.389 190.334C403.676 190.763 403.829 191.268 403.829 191.784C403.83 192.127 403.763 192.467 403.632 192.784C403.501 193.101 403.309 193.389 403.066 193.632C402.824 193.874 402.536 194.067 402.219 194.198C401.901 194.328 401.562 194.395 401.218 194.395ZM389.906 196.135C391.282 196.135 392.628 196.543 393.773 197.308C394.918 198.073 395.811 199.161 396.337 200.433C396.864 201.705 397.002 203.105 396.734 204.455C396.465 205.806 395.802 207.046 394.828 208.02C393.855 208.993 392.614 209.656 391.264 209.925C389.913 210.194 388.513 210.056 387.241 209.529C385.969 209.002 384.882 208.11 384.117 206.965C383.352 205.82 382.944 204.474 382.944 203.097C382.945 201.251 383.679 199.481 384.985 198.176C386.29 196.871 388.06 196.137 389.906 196.135ZM389.906 192.654C387.84 192.654 385.821 193.267 384.104 194.414C382.387 195.561 381.048 197.192 380.258 199.101C379.467 201.009 379.26 203.108 379.663 205.134C380.066 207.16 381.061 209.021 382.521 210.481C383.982 211.941 385.842 212.936 387.868 213.339C389.894 213.742 391.994 213.535 393.902 212.745C395.81 211.954 397.441 210.616 398.588 208.899C399.736 207.181 400.348 205.162 400.348 203.097C400.348 200.328 399.247 197.672 397.289 195.714C395.331 193.755 392.675 192.655 389.906 192.654Z" fill="url(#paint1_linear)"/>
</g>
<path id="Linkedin" d="M702.584 10.5126H667.731C667.283 10.491 666.835 10.558 666.413 10.7099C665.991 10.8618 665.603 11.0956 665.272 11.3978C664.94 11.7 664.672 12.0646 664.482 12.4709C664.291 12.8772 664.183 13.317 664.164 13.7651V48.6938C664.188 49.6335 664.571 50.5282 665.235 51.1939C665.898 51.8596 666.792 52.2457 667.731 52.2726H702.573C703.49 52.2367 704.356 51.841 704.983 51.1711C705.61 50.5012 705.948 49.6111 705.923 48.6938V13.7651C705.931 13.3286 705.849 12.8951 705.682 12.4915C705.516 12.0878 705.269 11.7225 704.956 11.4178C704.643 11.1132 704.271 10.8758 703.864 10.7201C703.456 10.5644 703.02 10.4938 702.584 10.5126V10.5126ZM677.108 45.3216H671.125V26.7206H677.108V45.3216ZM674.323 23.8923H674.28C673.419 23.8866 672.596 23.5399 671.99 22.9281C671.384 22.3164 671.046 21.4896 671.049 20.6288C671.052 19.768 671.396 18.9434 672.005 18.3358C672.615 17.7281 673.441 17.3869 674.302 17.3869C675.162 17.3869 675.988 17.7281 676.598 18.3358C677.208 18.9434 677.552 19.768 677.554 20.6288C677.557 21.4896 677.219 22.3164 676.613 22.9281C676.008 23.5399 675.184 23.8866 674.323 23.8923V23.8923ZM698.973 45.3216H692.99V35.1509C692.99 32.7143 692.12 31.0499 689.955 31.0499C689.278 31.0557 688.619 31.2711 688.07 31.6666C687.521 32.062 687.108 32.6181 686.887 33.2581C686.728 33.7306 686.658 34.2286 686.681 34.7266V45.3216H680.698V26.7206H686.681V29.3095C687.225 28.3671 688.014 27.5889 688.963 27.0568C689.913 26.5246 690.988 26.2582 692.076 26.2855C696.003 26.2855 698.973 28.8744 698.973 34.4548V45.3216Z" fill="#0077B5"/>
<path id="Vector_8" d="M537.446 268.118C537.446 268.118 579.793 269.27 586.786 271.814C593.78 274.359 596.908 292.554 596.908 292.554L564.028 302.888L539.437 301.495L520.929 302.803L531.263 275.738L537.446 268.118Z" fill="#2F2E41"/>
<path id="Vector_9" d="M539.273 254.223C539.273 254.223 542.059 264.984 535.876 272.603C529.692 280.223 562.458 307.373 562.458 307.373L579.743 304.402C579.743 304.402 575.933 271.338 581.051 262.965C586.168 254.593 539.273 254.223 539.273 254.223Z" fill="#9F616A"/>
<path id="Vector_10" opacity="0.1" d="M539.273 254.223C539.273 254.223 542.059 264.984 535.876 272.603C529.692 280.223 562.458 307.373 562.458 307.373L579.743 304.402C579.743 304.402 575.933 271.338 581.051 262.965C586.168 254.593 539.273 254.223 539.273 254.223Z" fill="#A85E5E"/>
<path id="Vector_11" d="M654.23 568.843L616.092 619.42L642.119 634.616L677.941 576.007L654.23 568.843Z" fill="#C5CEEF"/>
<path id="Vector_12" d="M627.478 620.273C627.478 620.273 613.433 603.954 614.059 607.593C614.684 611.232 604.066 642.093 613.945 645.078C623.825 648.063 708.546 655.981 709.711 646.414C710.877 636.847 684.437 630.152 684.437 630.152C684.437 630.152 668.73 615.056 665.247 616.591C661.764 618.126 627.478 620.273 627.478 620.273Z" fill="#2F2E41"/>
<path id="Vector_13" d="M645.673 617.145L676.136 669.044L699.136 655.725L668.417 613.236L645.673 617.145Z" fill="#C5CEEF"/>
<path id="Vector_14" d="M693.762 493.674L684.721 506.467C684.721 506.467 641.622 566.327 646.199 571.16C650.776 575.993 669.838 594.259 679.533 590.72C689.228 587.18 723.67 525.999 723.67 525.999L714.686 490.078L693.762 493.674Z" fill="#2F2E41"/>
<path id="Vector_15" d="M508.1 481.563C508.1 481.563 517.752 499.574 542.216 505.672C566.68 511.77 592.239 524.236 593.148 524.08C594.058 523.924 596.631 522.545 597.257 526.184C597.882 529.823 604.592 536.163 604.592 536.163C604.592 536.163 631.614 627.991 641.935 628.091C652.255 628.19 673.463 620.799 673.904 617.913C674.345 615.027 642.304 521.251 641.991 519.432L638.238 497.598C638.238 497.598 680.613 504.364 684.565 505.558C688.517 506.752 723.67 525.999 723.67 525.999C723.67 525.999 759.506 500.17 725.987 474.086C692.468 448.001 634.855 428.868 634.855 428.868L614.186 423.054L596.173 421.979L593.521 411.808L550.859 414.27L506.337 433.161L508.1 481.563Z" fill="#2F2E41"/>
<path id="Vector_16" d="M564.405 275.642C582.758 275.642 597.636 260.764 597.636 242.411C597.636 224.057 582.758 209.179 564.405 209.179C546.052 209.179 531.173 224.057 531.173 242.411C531.173 260.764 546.052 275.642 564.405 275.642Z" fill="#9F616A"/>
<path id="Vector_17" d="M534.34 269.121L538.337 268.434C538.337 268.434 545.556 296.229 567.888 300.82C567.888 300.82 578.907 287.62 578.437 285.392C577.966 283.165 587.163 271.281 592.053 277.934C596.943 284.586 590.859 401.775 594.968 403.878C599.076 405.982 607.889 408.214 600.796 415.989C593.703 423.765 565.528 434.227 559.288 430.617C553.048 427.006 540.297 396.416 534.781 386.124C529.266 375.832 520.438 340.821 520.438 340.821C520.438 340.821 509.166 302.483 516.103 293.798C523.04 285.113 534.34 269.121 534.34 269.121Z" fill="#8272DE"/>
<path id="Vector_18" d="M566.145 413.391C565.402 421.554 564.13 429.661 562.338 437.659C560.708 444.167 558.811 448.097 556.645 447.929C551.12 447.516 548.608 455.621 547.313 464.964C545.929 474.876 545.929 486.184 545.17 490.181C544.165 495.461 537.735 499.491 524.887 498.307C517.235 497.437 509.725 495.595 502.539 492.826C485.192 486.519 485.705 435.371 488.607 397.417C490.382 374.154 493.05 355.836 493.05 355.836C493.05 355.836 487.781 340.118 486.096 329.346C485.76 327.381 485.592 325.39 485.593 323.396C485.85 313.986 503.03 288.557 513.411 272.717C523.804 256.877 537.981 268.497 537.981 268.497L533.047 283.388C533.047 283.388 540.693 295.188 540.749 306.417C540.805 317.647 559.056 325.752 565.609 331.188C569.728 334.604 569.628 380.204 566.145 413.391Z" fill="#2F2E41"/>
<path id="Vector_19" d="M580.575 273.819C580.575 273.819 581.772 275.234 587.256 274.544C593.832 273.715 602.874 275.991 604.975 282.269C608.827 293.783 619.687 340.622 619.687 340.622C619.687 340.622 624.208 394.169 626.24 405.996C628.273 417.823 627.264 428.3 629.268 434.512C631.273 440.723 609.481 422.926 601.45 425.243C593.418 427.56 588.258 397.539 589.267 387.062C590.277 376.586 591.129 365.199 588.343 354.439C585.557 343.678 590.497 315.198 590.312 308.674C590.127 302.149 572.602 285.705 580.575 273.819Z" fill="#2F2E41"/>
<path id="Vector_20" d="M604.088 440.244C604.088 440.244 639.274 459.44 642.641 486.762C646.009 514.084 595.579 460.307 595.579 460.307L604.088 440.244Z" fill="#9F616A"/>
<path id="Vector_21" d="M624.174 420.869C624.174 420.869 634.955 475.214 651.751 472.327C668.546 469.441 642.369 417.742 642.369 417.742L624.174 420.869Z" fill="#9F616A"/>
<path id="Vector_22" d="M681.694 657.786C681.694 657.786 673.094 667.694 670.961 666.187C668.829 664.68 663.925 685.192 668.346 689.116C672.767 693.039 689.796 699.478 689.981 706.003C690.166 712.528 735.839 711.234 737.473 704.397C739.108 697.559 731.745 681.965 726.57 679.108C721.396 676.251 702.264 649.954 702.264 649.954C702.264 649.954 687.28 652.142 681.694 657.786Z" fill="#2F2E41"/>
<path id="Vector_23" opacity="0.1" d="M598.484 473.481C590.324 467.721 567.54 466.292 547.313 464.964C538.438 464.395 530.055 463.836 523.614 462.932C517.408 462.073 511.826 456.402 506.87 447.952C499.357 435.148 493.285 415.948 488.607 397.417C490.382 374.154 493.05 355.836 493.05 355.836C493.05 355.836 487.781 340.118 486.096 329.346C487.284 327.692 488.815 326.314 490.583 325.305C512.038 316.096 532.522 406.727 535.123 420.949C535.168 421.183 535.201 421.406 535.235 421.596C536.496 428.919 550.126 435.181 562.338 437.659C569.862 439.189 576.861 439.289 580.087 437.302C588.56 432.1 614.614 452.919 616.59 453.511C618.566 454.113 610.205 481.775 598.484 473.481Z" fill="black"/>
<path id="Vector_24" d="M490.587 319.726C490.587 319.726 474.993 327.089 481.845 361.504C488.697 395.918 502.499 454.427 523.609 457.355C544.718 460.283 586.752 459.615 598.479 467.903C610.206 476.19 618.565 448.528 616.589 447.93C614.613 447.333 588.557 426.523 580.085 431.725C571.613 436.928 537.269 427.845 535.236 416.018C533.204 404.191 512.393 310.358 490.587 319.726Z" fill="#2F2E41"/>
<path id="Vector_25" d="M602.956 303.222L620.094 342.989C620.094 342.989 621.819 342.128 623.824 348.34C625.828 354.552 626.766 360.011 630.277 364.091C633.789 368.17 649.411 426.366 649.88 429.096C650.349 431.825 628.303 441.234 623.377 433.651C618.451 426.068 602.956 303.222 602.956 303.222Z" fill="#2F2E41"/>
<path id="Vector_26" d="M545.498 241.948C546.772 241.608 546.959 239.917 547.002 238.6C547.23 231.544 551.479 224.305 558.232 222.251C560.824 221.54 563.537 221.391 566.191 221.813C569.979 222.317 573.637 223.538 576.969 225.409C578.728 226.397 580.454 227.589 582.449 227.891C583.767 228.09 589.472 229.749 590.784 229.982C593.669 230.496 596.35 233.077 599.118 232.116C601.766 231.197 602.353 227.768 602.417 224.966C602.562 218.581 597.716 209.745 593.447 204.995C590.207 201.391 585.329 199.727 580.56 198.862C574.99 197.967 569.345 197.623 563.708 197.837C556.077 197.973 548.234 198.562 541.353 201.864C534.472 205.166 528.692 211.737 528.362 219.362C528.293 220.951 528.457 222.546 528.323 224.13C527.998 227.995 525.945 231.486 524.983 235.243C524.294 238 524.191 240.87 524.681 243.669C525.17 246.468 526.24 249.133 527.822 251.493C530.376 255.252 534.39 258.651 534.242 263.192L539.78 257.455C540.607 256.824 541.192 255.928 541.438 254.917C541.685 253.905 541.576 252.841 541.132 251.9L539.172 244.254C538.668 242.89 538.609 241.4 539.003 240C541.104 234.808 543.375 242.515 545.498 241.948Z" fill="#2F2E41"/>
<path id="Vector_27" d="M292.583 468.934C292.583 574.883 229.598 611.876 151.902 611.876C74.206 611.876 11.2211 574.883 11.2211 468.934C11.2211 362.985 151.902 228.202 151.902 228.202C151.902 228.202 292.583 362.985 292.583 468.934Z" fill="url(#paint2_linear)"/>
<path id="Vector_28" d="M146.777 595.669L148.218 507L208.179 397.303L148.444 493.09L149.091 453.22L190.417 373.856L149.263 442.67L150.428 370.963L194.68 307.779L150.611 359.687L151.339 228.202L146.765 402.264L147.14 395.084L102.149 326.217L146.419 408.868L142.227 488.953L142.102 486.827L90.235 414.355L141.945 494.336L141.421 504.352L141.327 504.502L141.37 505.324L130.734 708.506H144.944L146.649 603.558L198.232 523.773L146.777 595.669Z" fill="#3F3D56"/>
</g>
<defs>
<linearGradient id="paint0_linear" x1="389.906" y1="182.211" x2="389.906" y2="223.982" gradientUnits="userSpaceOnUse">
<stop stop-color="#C13584"/>
<stop offset="1" stop-color="#FD1D1D" stop-opacity="0"/>
</linearGradient>
<linearGradient id="paint1_linear" x1="391.646" y1="189.173" x2="391.646" y2="213.54" gradientUnits="userSpaceOnUse">
<stop stop-color="#C13584"/>
<stop offset="1" stop-color="#FD1D1D" stop-opacity="0"/>
</linearGradient>
<linearGradient id="paint2_linear" x1="151.902" y1="228.202" x2="151.902" y2="611.876" gradientUnits="userSpaceOnUse">
<stop stop-color="#F0D338"/>
<stop offset="1" stop-color="#087306" stop-opacity="0"/>
</linearGradient>
<clipPath id="clip0">
<rect width="846.02" height="713.53" fill="white"/>
</clipPath>
</defs>
</svg>
